<?xml version="1.0" standalone="no"?>
<!DOCTYPE svg PUBLIC "-//W3C//DTD SVG 20010904//EN"
 "http://www.w3.org/TR/2001/REC-SVG-20010904/DTD/svg10.dtd">
<svg version="1.0" xmlns="http://www.w3.org/2000/svg"
 width="3000.000000pt" height="3000.000000pt" viewBox="0 0 3000.000000 3000.000000"
 preserveAspectRatio="xMidYMid meet">

<g transform="translate(0.000000,3000.000000) scale(0.100000,-0.100000)"
fill="#000000" stroke="none">
<path d="M17550 23780 c-30 -5 -98 -13 -150 -19 -304 -32 -485 -177 -812 -651
-99 -143 -278 -439 -278 -458 0 -9 4 -24 10 -32 13 -21 -11 -33 -26 -12 -13
18 3 42 -174 -248 -214 -350 -283 -486 -295 -582 -4 -31 -8 -134 -9 -229 -2
-163 -11 -235 -47 -396 -5 -23 -9 -78 -9 -122 0 -65 3 -81 15 -81 8 0 12 -6 9
-14 -3 -7 1 -20 8 -27 26 -27 48 -64 48 -81 0 -28 41 -69 62 -62 11 3 18 0 18
-8 0 -20 169 -29 306 -16 44 4 47 -1 26 -39 -8 -15 -9 -23 -2 -23 5 0 10 -4
10 -10 0 -5 -7 -10 -15 -10 -8 0 -15 -4 -15 -8 0 -5 10 -8 23 -7 25 2 47 -11
47 -29 0 -6 -8 -2 -17 9 -15 20 -15 20 -10 -3 3 -12 2 -20 -3 -17 -8 5 -23
-20 -25 -40 0 -5 -4 -16 -8 -22 -5 -9 -3 -11 6 -7 10 3 13 -2 11 -18 -1 -13
-3 -27 -3 -31 -1 -5 -7 -5 -13 -1 -7 4 -4 -2 6 -14 11 -12 16 -25 13 -29 -4
-3 -7 -2 -7 4 0 5 -6 10 -14 10 -14 0 -16 -20 -4 -33 4 -3 3 -16 -1 -28 -9
-25 -8 -37 2 -53 5 -8 3 -11 -5 -8 -8 3 -20 -10 -29 -30 -9 -19 -12 -35 -7
-35 5 0 12 10 17 22 6 18 9 19 14 5 4 -10 1 -17 -6 -17 -8 0 -7 -4 3 -11 13
-9 13 -10 0 -8 -36 4 -42 -1 -36 -26 4 -14 2 -25 -4 -25 -5 0 -10 -7 -10 -15
0 -8 -5 -15 -10 -15 -6 0 -10 -8 -8 -17 2 -11 -2 -17 -11 -15 -10 2 -12 -4 -7
-23 5 -18 2 -27 -9 -31 -12 -5 -13 -9 -4 -20 10 -12 8 -13 -6 -8 -12 5 -16 4
-12 -3 4 -6 -4 -22 -17 -36 -15 -17 -20 -28 -13 -31 8 -3 8 -5 -1 -5 -7 -1
-10 -5 -7 -11 3 -5 2 -10 -4 -10 -5 0 -12 6 -14 13 -5 11 -11 -28 -8 -47 1 -5
-5 -6 -13 -3 -15 6 -46 -22 -46 -42 0 -7 -4 -10 -9 -7 -4 3 -6 -7 -4 -22 3
-19 2 -23 -5 -13 -8 11 -12 10 -21 -5 -6 -11 -11 -15 -11 -10 0 5 -7 3 -15 -4
-8 -7 -12 -16 -9 -21 3 -5 -2 -9 -10 -9 -10 0 -13 -6 -9 -17 5 -12 2 -15 -9
-11 -9 4 -29 -6 -49 -23 -24 -21 -28 -28 -14 -24 16 5 16 4 -2 -6 -13 -7 -25
-20 -28 -31 -4 -10 -11 -16 -16 -13 -5 4 -9 1 -9 -5 0 -6 -4 -9 -9 -6 -4 3
-16 -3 -26 -14 -10 -11 -15 -20 -11 -20 4 0 1 -10 -5 -22 -11 -20 -12 -20 -24
-4 -14 19 -24 11 -20 -17 3 -15 1 -16 -11 -6 -12 10 -16 9 -20 -7 -3 -11 -15
-24 -27 -30 -12 -5 -21 -16 -19 -23 1 -7 -2 -10 -8 -6 -5 3 -13 -1 -16 -10 -4
-9 -13 -14 -20 -11 -9 3 -11 0 -7 -11 5 -12 3 -14 -7 -8 -9 6 -11 4 -6 -4 9
-14 -21 -51 -41 -51 -7 0 -13 -5 -13 -11 0 -5 -5 -7 -12 -3 -6 4 -8 3 -5 -3 4
-6 -20 -34 -52 -63 -32 -28 -58 -59 -57 -67 0 -9 -5 -18 -13 -21 -8 -3 -11 0
-7 7 15 24 -3 7 -113 -103 l-113 -114 38 -41 c28 -32 44 -41 62 -39 36 4 38
-15 4 -28 -37 -14 -73 3 -105 52 l-24 35 -73 -78 c-128 -136 -171 -226 -144
-298 8 -19 55 -45 83 -45 11 0 27 -7 35 -15 8 -9 29 -20 45 -26 29 -10 34 -30
16 -59 -3 -6 -1 -10 4 -10 21 0 17 87 -4 110 -21 23 -19 40 5 37 32 -5 43 -22
38 -66 -3 -35 -1 -41 15 -41 10 0 15 -5 12 -10 -4 -6 -11 -7 -17 -4 -7 5 -9 1
-5 -9 4 -12 1 -17 -10 -17 -14 0 -14 -2 2 -20 10 -11 15 -20 10 -20 -4 0 -1
-8 6 -17 12 -14 12 -16 -1 -8 -24 15 -70 13 -80 -4 -6 -11 -1 -22 16 -38 14
-13 30 -23 36 -23 5 0 7 -8 4 -17 -4 -9 -1 -20 6 -25 10 -6 10 -8 1 -8 -7 0
-13 -5 -13 -11 0 -5 5 -7 11 -3 8 4 7 0 -1 -15 -6 -12 -15 -19 -20 -16 -5 3
-14 -3 -20 -12 -11 -17 -11 -17 -6 1 5 13 2 17 -9 12 -8 -3 -15 -1 -15 4 0 5
10 10 23 12 15 2 23 11 24 28 3 25 3 25 -7 3 -5 -13 -12 -23 -15 -23 -4 0 -4
10 -1 23 l6 22 -11 -22 c-14 -27 -39 -30 -40 -5 0 10 -3 12 -6 5 -2 -7 -9 -13
-14 -13 -6 0 -7 6 -3 13 5 7 0 6 -11 -3 -14 -11 -19 -12 -22 -2 -8 23 -20 12
-15 -14 3 -16 1 -24 -4 -21 -6 3 -10 -3 -10 -14 0 -14 6 -19 20 -17 11 2 21 9
24 16 2 8 -2 10 -15 5 -15 -6 -16 -4 -5 9 13 17 59 21 68 7 3 -5 -2 -9 -11 -9
-15 0 -15 -2 -1 -15 8 -8 20 -15 26 -15 7 0 9 -7 6 -16 -6 -15 -4 -15 11 -3
17 13 17 13 3 -6 -8 -11 -15 -22 -17 -24 -1 -2 -8 8 -14 23 -16 33 -62 32 -67
-2 -2 -12 -8 -22 -13 -22 -6 0 -7 4 -4 10 3 6 -1 7 -9 4 -15 -6 -21 6 -17 30
1 5 -5 6 -14 2 -11 -4 -19 2 -25 20 -6 14 -14 22 -20 19 -5 -3 -10 -8 -10 -11
0 -3 4 -3 9 0 16 10 20 -34 10 -101 -1 -7 -6 -10 -11 -7 -5 3 -5 10 -2 16 4 7
2 8 -4 4 -18 -11 -14 -30 8 -44 26 -16 25 -29 -1 -37 -12 -4 -18 -12 -15 -21
7 -18 -10 -28 -21 -12 -13 22 -12 37 5 50 12 10 14 10 8 1 -4 -8 -1 -13 8 -13
26 0 18 27 -9 34 l-25 6 20 40 c20 39 35 55 24 25 -4 -8 -1 -15 5 -15 13 0 14
20 1 40 -8 12 -10 12 -16 -3 -3 -9 -10 -14 -15 -11 -5 3 -12 -2 -15 -11 -6
-14 -8 -14 -31 0 -20 14 -27 14 -40 3 -13 -10 -17 -10 -20 0 -3 6 -9 12 -15
12 -6 0 -3 -9 7 -20 16 -18 20 -19 27 -6 7 12 13 13 34 4 15 -7 23 -17 19 -26
-3 -7 -2 -19 2 -25 12 -19 12 -36 1 -44 -7 -3 -8 -1 -4 5 4 7 1 12 -9 12 -12
0 -15 7 -11 30 2 17 1 28 -4 25 -5 -3 -11 1 -13 7 -3 7 -3 -5 0 -27 4 -22 11
-43 17 -47 7 -5 4 -8 -6 -8 -10 0 -18 5 -18 11 0 6 -7 9 -15 5 -17 -6 -20 15
-5 30 7 7 6 11 -4 11 -8 0 -12 -5 -9 -10 4 -6 0 -8 -10 -4 -8 3 -18 0 -21 -8
-3 -9 0 -12 10 -8 7 3 14 0 14 -6 0 -6 -5 -11 -12 -11 -6 0 -1 -10 12 -22 14
-13 19 -23 12 -26 -7 -2 -9 -8 -6 -13 4 -6 11 -6 19 1 26 22 25 -9 -1 -37 -15
-15 -21 -20 -14 -10 17 23 2 39 -37 40 -15 0 -23 2 -16 4 7 2 9 11 6 19 -4 10
0 12 11 8 9 -3 13 -11 9 -17 -3 -6 -1 -7 5 -3 20 12 13 27 -18 37 -32 12 -38
24 -17 32 9 4 8 6 -2 6 -11 1 -11 4 0 19 12 15 12 16 -2 5 -9 -7 -18 -11 -20
-8 -4 3 -4 -24 0 -73 1 -7 5 -11 10 -8 4 3 6 -6 3 -19 -5 -27 -21 -32 -40 -13
-17 17 -16 -13 1 -32 10 -12 9 -12 -5 -1 -25 19 -22 48 4 57 21 6 21 7 3 20
-23 17 -52 18 -57 3 -2 -6 -18 -12 -35 -14 -23 -2 -30 1 -26 11 3 8 0 14 -6
14 -6 0 -11 -4 -11 -8 0 -4 -11 -8 -25 -8 -16 0 -21 4 -15 11 13 16 96 13 92
-3 -1 -8 2 -11 7 -7 21 13 -2 36 -33 34 -17 -2 -37 1 -44 5 -8 5 -18 1 -26
-10 -7 -10 -22 -18 -34 -19 -15 -1 -19 4 -17 22 1 13 0 21 -3 19 -7 -8 -34 23
-28 33 3 5 0 11 -8 14 -11 4 -12 -2 -6 -30 7 -30 6 -34 -8 -28 -10 4 -23 8
-29 8 -7 0 -13 5 -13 10 0 5 9 7 19 4 14 -3 18 -1 14 10 -3 8 -14 13 -24 10
-12 -3 -19 0 -19 9 0 8 -8 14 -17 14 -15 0 -16 -2 -3 -10 8 -5 10 -10 4 -10
-18 0 -24 13 -12 27 8 11 7 12 -6 7 -9 -3 -16 -1 -16 6 0 6 -4 9 -10 5 -5 -3
-8 -11 -6 -18 1 -7 1 -9 -1 -5 -2 4 -11 4 -19 1 -8 -3 -14 0 -14 6 0 6 7 11
15 11 8 0 15 8 15 18 0 12 -2 14 -8 4 -6 -9 -12 -5 -20 13 -7 15 -9 31 -6 37
5 7 2 8 -6 3 -9 -5 -10 -2 -5 14 4 13 2 21 -5 21 -6 0 -8 -4 -5 -10 3 -5 1
-10 -4 -10 -6 0 -11 5 -11 11 0 5 -4 7 -10 4 -10 -6 -13 5 -12 43 1 15 -3 20
-11 15 -7 -4 -21 -9 -32 -10 -16 -3 -17 -1 -5 7 13 9 13 10 0 10 -9 0 -11 3
-5 8 14 9 17 52 4 52 -6 0 -10 10 -9 23 3 37 1 49 -10 42 -6 -4 -7 -11 -4 -17
5 -7 2 -8 -6 -3 -10 6 -6 14 16 33 16 13 23 21 15 17 -9 -5 -12 -3 -9 6 3 8
10 13 16 12 6 -2 9 3 7 10 -9 23 213 238 375 362 93 72 170 145 170 162 0 18
-2 17 -80 -22 l-70 -35 12 26 c11 23 10 28 -7 40 -15 11 -16 17 -6 27 10 10
15 8 25 -5 7 -10 16 -18 19 -18 8 0 43 60 52 88 13 43 24 47 -495 -190 -345
-157 -596 -288 -857 -446 -242 -147 -320 -200 -419 -289 -72 -64 -83 -77 -72
-90 10 -12 27 -14 83 -10 53 5 64 4 45 -4 -14 -6 -50 -9 -82 -7 l-56 3 -6 -44
c-10 -74 -7 -99 15 -119 22 -21 49 -19 138 13 24 8 60 15 80 15 20 0 53 3 74
6 31 6 35 9 26 21 -8 9 -22 12 -41 8 -30 -7 -40 8 -12 19 51 20 124 -7 124
-45 0 -11 7 -27 16 -36 8 -9 13 -22 10 -30 -3 -8 -1 -11 4 -8 10 6 20 -26 18
-57 -1 -15 -4 -15 -16 -5 -13 10 -15 9 -9 -11 5 -20 2 -23 -14 -19 -10 3 -22
1 -25 -4 -3 -5 1 -9 9 -9 8 0 17 -7 20 -14 4 -10 1 -13 -7 -10 -8 3 -17 0 -21
-5 -3 -6 -10 -9 -15 -6 -5 3 -12 1 -15 -5 -4 -6 -1 -9 5 -8 19 5 21 -33 3 -51
-15 -15 -15 -16 3 -19 10 -2 23 -8 28 -12 5 -5 -1 -6 -14 -3 -18 5 -21 3 -16
-8 4 -8 -1 -4 -11 8 -16 20 -20 20 -37 7 -19 -14 -19 -14 4 -14 l23 0 -21 -23
c-12 -13 -22 -27 -22 -32 0 -5 7 0 16 11 15 19 15 19 5 -1 -5 -11 -18 -20 -28
-20 -13 0 -17 -7 -16 -22 2 -16 -2 -21 -12 -17 -18 7 -19 0 -3 -29 17 -31 20
-55 7 -62 -6 -4 -9 0 -7 10 2 10 -3 20 -11 23 -10 3 -12 -1 -8 -18 4 -17 2
-21 -12 -17 -12 3 -17 -3 -19 -21 -2 -24 -1 -24 23 -8 38 25 37 19 -5 -26 -21
-23 -42 -39 -46 -36 -3 4 -13 1 -20 -7 -16 -16 -5 -59 18 -69 7 -3 4 -4 -7 -3
-14 1 -20 -4 -19 -16 2 -15 -1 -16 -13 -5 -13 10 -13 13 1 23 9 7 13 15 9 18
-9 9 -32 -24 -33 -46 0 -10 -4 -16 -8 -13 -5 3 -6 -9 -4 -26 3 -21 0 -33 -11
-40 -9 -5 -14 -15 -11 -23 4 -8 10 -13 14 -10 5 3 12 0 16 -6 4 -7 3 -9 -4 -5
-6 3 -13 2 -17 -4 -3 -5 -12 -10 -18 -10 -7 0 -6 4 3 10 13 8 12 10 -3 10 -11
0 -15 4 -11 12 4 6 3 8 -4 5 -11 -8 -11 -25 2 -45 4 -7 5 -16 1 -20 -3 -3 -10
0 -15 8 -6 9 -10 10 -10 3 0 -6 5 -15 10 -18 16 -10 11 -25 -6 -18 -14 5 -15
3 -6 -14 8 -14 8 -23 0 -31 -17 -17 -28 -14 -21 5 6 15 5 16 -9 3 -8 -8 -13
-21 -11 -27 3 -7 1 -13 -5 -13 -6 0 -9 -12 -7 -27 2 -22 -11 -39 -74 -98 -178
-169 -562 -445 -750 -539 -38 -20 -73 -42 -78 -49 -4 -8 -45 -36 -91 -62 -45
-26 -81 -49 -79 -51 2 -2 31 7 64 20 39 15 65 20 71 14 6 -6 15 -4 24 6 9 8
18 12 21 9 6 -5 31 3 102 33 17 7 93 38 170 70 77 31 172 71 210 89 85 39 201
85 216 85 5 0 30 9 54 20 24 11 59 22 78 24 18 3 60 13 93 24 52 17 78 24 134
37 142 33 310 83 365 110 65 31 135 53 135 42 0 -2 -27 -14 -61 -26 -33 -13
-59 -24 -57 -26 2 -2 76 9 163 25 88 16 215 36 282 43 108 11 125 11 138 -2 9
-9 15 -11 15 -4 0 6 -6 14 -12 16 -7 3 3 6 23 6 24 1 39 -4 43 -14 3 -8 13
-15 21 -15 9 0 13 5 10 10 -4 6 -11 8 -16 5 -5 -4 -9 -2 -9 3 0 21 29 20 45
-1 12 -17 15 -18 11 -4 -3 10 -2 16 3 12 5 -3 11 -2 14 2 2 5 2 3 1 -4 -4 -15
24 -25 32 -11 4 5 0 15 -7 20 -11 8 -10 8 4 4 10 -3 24 -6 30 -6 7 0 4 -5 -5
-11 -10 -5 -18 -15 -18 -20 0 -6 5 -7 10 -4 6 3 10 2 10 -3 0 -6 9 -8 20 -5
11 3 17 9 14 14 -3 5 2 6 10 3 9 -3 16 -11 16 -16 0 -6 6 -8 14 -5 7 3 19 0
25 -6 10 -10 16 0 13 25 -1 3 5 9 14 12 12 4 12 2 4 -14 -12 -22 -6 -40 13
-40 7 0 6 4 -3 10 -12 7 -12 11 -2 20 6 5 10 7 7 4 -2 -4 10 -14 28 -23 23
-13 36 -14 47 -7 36 25 60 36 60 26 0 -6 -9 -14 -21 -18 -20 -8 -20 -9 -3 -23
10 -7 15 -9 11 -3 -9 16 34 26 51 12 10 -9 15 -9 21 1 6 10 10 9 14 -4 4 -9 3
-13 -2 -10 -5 3 -13 0 -17 -6 -4 -7 -3 -9 4 -5 6 3 13 2 17 -4 3 -5 14 -10 23
-9 15 0 15 1 -1 7 -16 7 -16 9 -2 27 9 11 14 15 12 10 -8 -17 19 -46 37 -39 9
3 13 10 10 15 -3 5 -1 9 5 9 5 0 12 -4 15 -9 3 -5 15 -7 25 -4 10 3 22 -1 26
-7 5 -9 1 -10 -13 -6 -11 4 -23 3 -26 -2 -3 -5 9 -10 27 -10 47 -1 157 -35
157 -48 0 -7 14 -10 40 -7 32 4 40 2 40 -11 0 -9 -5 -16 -12 -16 -6 0 -8 -3
-5 -6 4 -4 13 -2 20 4 8 7 17 8 21 4 4 -4 14 2 22 12 8 11 14 16 14 11 0 -5
-7 -16 -15 -25 -13 -14 -12 -16 5 -16 11 0 20 4 20 8 0 4 14 2 30 -3 17 -6 30
-16 30 -21 0 -7 -5 -6 -13 1 -10 8 -14 7 -14 -4 0 -8 4 -12 8 -9 4 2 10 0 14
-6 3 -5 12 -10 18 -10 7 0 6 4 -3 10 -9 6 -10 10 -3 10 6 0 15 -5 19 -12 5 -8
9 -6 14 7 4 12 9 15 13 8 4 -6 0 -19 -9 -27 -8 -9 -11 -16 -5 -16 5 0 13 5 16
10 3 6 11 10 16 10 6 0 7 -4 4 -10 -3 -5 -1 -10 5 -10 6 0 22 -12 35 -27 19
-22 27 -25 34 -14 6 9 11 10 15 2 4 -6 12 -9 17 -6 5 4 9 1 9 -5 0 -7 -7 -10
-15 -6 -8 3 -15 1 -15 -4 0 -6 8 -11 18 -12 9 0 23 -2 30 -2 8 -1 19 -9 26
-18 7 -10 23 -19 34 -21 12 -2 25 -7 29 -12 5 -4 3 -5 -4 -1 -6 3 -14 2 -17
-3 -4 -6 9 -8 31 -6 24 2 32 0 22 -6 -11 -7 -12 -9 0 -9 11 0 11 -3 0 -17 -8
-9 -9 -14 -4 -11 15 8 57 -10 50 -22 -4 -6 -3 -10 2 -9 19 3 34 -2 28 -10 -9
-16 15 -24 30 -11 10 8 15 9 15 2 0 -6 -8 -16 -17 -21 -15 -9 -14 -10 9 -9 19
2 25 7 23 20 -3 11 0 16 6 12 6 -3 9 -17 6 -31 -3 -17 -1 -21 6 -14 14 14 27
14 27 0 0 -5 -4 -8 -9 -5 -5 3 -11 -1 -15 -9 -3 -8 -2 -14 2 -13 4 1 18 -2 31
-6 17 -6 20 -10 11 -16 -7 -4 -10 -15 -7 -25 7 -18 45 -12 59 9 5 6 8 2 8 -10
0 -12 -10 -28 -22 -37 -22 -15 -5 -19 18 -4 8 4 13 -11 17 -46 3 -28 9 -63 12
-77 4 -14 7 -44 7 -67 0 -24 4 -43 9 -43 5 0 9 8 9 17 0 14 5 13 26 -9 26 -26
26 -26 8 -52 -11 -14 -25 -26 -33 -26 -11 0 -12 -11 -5 -57 5 -32 8 -93 7
-135 0 -43 1 -78 4 -78 3 0 14 11 24 24 29 37 53 27 57 -23 4 -50 -10 -71 -48
-71 l-27 0 -1 -115 c0 -64 3 -113 7 -110 5 3 5 -12 0 -33 -15 -63 -12 -73 16
-66 20 5 27 1 36 -20 9 -20 9 -29 -1 -41 -15 -18 -49 -20 -51 -2 -1 6 -5 -15
-9 -48 -12 -97 -11 -213 2 -235 7 -10 9 -23 5 -27 -5 -4 -12 -1 -17 7 -7 10
-10 -11 -10 -62 0 -42 -4 -79 -8 -82 -5 -3 -10 -33 -11 -66 -1 -33 -9 -109
-17 -168 -8 -59 -18 -129 -21 -157 -3 -27 -9 -57 -13 -65 -4 -8 -11 -46 -15
-85 -4 -38 -12 -75 -17 -82 -19 -23 -5 -56 25 -59 16 -1 35 -8 43 -15 31 -26
4 -121 -39 -135 -39 -14 -46 -12 -53 9 -5 15 -1 25 15 35 24 16 28 47 7 55
-17 7 -30 -23 -52 -118 -30 -131 -32 -174 -13 -213 16 -31 17 -36 2 -58 -8
-13 -18 -22 -22 -20 -26 17 -46 -40 -69 -199 -4 -27 -10 -54 -14 -60 -3 -5 -9
-38 -12 -73 -4 -34 -11 -75 -17 -90 -6 -15 -15 -52 -20 -82 -4 -30 -13 -77
-18 -105 -8 -41 -28 -171 -45 -295 -2 -14 -6 -36 -10 -50 -3 -14 -8 -41 -10
-60 -3 -19 -5 -35 -6 -35 -3 0 -10 -48 -25 -180 -9 -77 -27 -232 -40 -345 -13
-113 -24 -225 -24 -250 0 -25 -3 -56 -6 -70 -6 -34 -23 -274 -30 -445 -4 -77
-8 -169 -10 -205 -8 -140 -20 -843 -20 -1165 0 -514 25 -925 86 -1425 55 -452
120 -794 198 -1042 16 -51 57 -185 91 -298 34 -113 109 -358 167 -545 58 -187
111 -361 119 -386 22 -72 72 -188 88 -204 21 -22 30 0 10 24 -22 25 -51 92
-33 73 17 -16 32 -16 23 1 -4 6 2 3 14 -7 17 -14 22 -16 22 -5 0 9 3 10 8 4 9
-13 47 -13 59 -1 4 5 3 6 -4 2 -6 -3 -14 -2 -18 4 -12 19 25 10 46 -11 11 -11
22 -19 24 -17 2 2 14 42 26 88 12 50 54 154 100 250 58 121 87 197 110 285 24
96 44 146 101 250 38 72 85 166 104 210 18 44 38 79 44 77 6 -1 9 2 5 8 -10
16 25 111 37 104 7 -4 8 -2 4 5 -4 6 0 34 9 62 20 59 45 110 45 91 0 -7 5 -10
10 -7 6 3 10 13 10 21 0 8 -4 12 -10 9 -5 -3 -10 1 -10 10 0 10 5 13 12 9 7
-4 8 -3 4 4 -4 6 -1 30 5 52 8 27 15 36 20 28 6 -9 11 -5 17 12 5 14 7 29 4
34 -3 5 -9 1 -13 -10 -5 -13 -8 -14 -8 -4 0 8 4 22 9 30 6 10 10 11 10 3 0
-28 18 -11 29 29 10 32 10 43 1 46 -7 3 -3 10 9 19 12 8 21 22 21 31 -1 12 -5
10 -15 -8 -8 -14 -14 -21 -15 -16 0 21 44 146 53 146 4 0 5 -5 1 -12 -4 -7 -3
-8 5 -4 8 5 9 12 2 20 -11 13 -4 56 10 56 5 0 9 7 9 15 0 8 20 82 45 163 26
81 62 206 82 277 19 72 39 139 44 150 15 34 103 392 143 585 15 69 31 136 36
150 6 14 12 41 15 60 3 19 12 69 21 110 8 41 26 129 39 195 13 66 35 179 50
250 14 72 35 177 46 235 24 123 27 137 34 170 3 14 26 140 51 280 26 140 49
262 51 270 3 8 7 24 9 35 3 21 22 119 68 355 28 143 53 276 62 338 3 20 8 46
11 57 4 11 8 27 9 35 1 8 5 31 8 50 4 19 11 60 16 90 9 47 24 143 55 335 7 44
13 70 15 70 1 0 3 16 5 35 5 53 14 121 21 160 4 19 8 42 10 50 7 46 48 325 64
445 10 77 26 190 34 250 8 61 17 135 21 165 3 30 12 107 20 170 15 123 20 168
35 318 6 54 12 115 15 137 7 59 23 257 30 360 19 293 95 568 226 825 106 207
209 370 307 482 88 102 96 110 117 106 16 -3 21 1 22 16 1 12 -1 15 -4 9 -3
-7 -9 -13 -15 -13 -6 0 -5 6 2 15 9 11 16 13 24 5 7 -7 22 1 50 27 22 21 35
31 30 23 -20 -28 -23 -49 -8 -61 12 -10 13 -9 8 6 -5 13 -4 16 4 11 8 -5 10
-2 6 9 -5 11 -2 14 10 9 9 -3 16 -1 16 5 0 6 7 11 15 11 8 0 15 -4 15 -8 0 -4
9 -8 19 -8 15 0 17 3 9 14 -8 9 -8 16 0 24 9 9 12 8 12 -5 0 -21 28 -22 54 -2
14 11 23 12 33 4 9 -8 13 -8 13 0 0 6 13 9 30 7 27 -3 30 -1 24 16 -5 17 -3
19 12 10 14 -8 21 -6 31 6 11 16 12 15 13 -3 1 -18 2 -18 13 -4 7 9 22 14 36
12 21 -3 22 -1 10 13 -18 22 32 -7 138 -79 45 -30 84 -52 88 -49 4 4 11 -1 16
-10 5 -9 55 -49 111 -89 88 -62 135 -97 298 -219 14 -10 139 -103 277 -207
139 -103 296 -219 348 -258 53 -38 102 -74 108 -80 63 -53 169 -124 193 -129
16 -3 166 -34 334 -70 168 -35 424 -87 570 -115 146 -28 283 -55 305 -60 22
-5 41 -8 43 -7 1 2 -26 61 -61 132 -222 447 -468 1107 -582 1559 -37 151 -75
356 -75 411 l0 34 98 2 c53 1 109 2 125 2 17 1 27 6 27 16 0 8 -15 71 -34 140
-86 311 -189 537 -334 735 -28 39 -73 99 -99 135 -50 69 -251 323 -299 378
-27 31 -32 32 -76 26 -44 -6 -48 -9 -48 -34 0 -34 22 -54 52 -47 22 6 23 3 24
-43 0 -42 -2 -50 -18 -50 -36 0 -55 -33 -52 -91 l2 -54 -18 40 c-11 22 -25 60
-32 84 -10 33 -19 46 -38 52 -95 26 -112 34 -127 60 -15 26 -21 28 -75 26 -52
-2 -59 -5 -64 -24 -4 -13 -11 -23 -16 -23 -6 0 -7 7 -4 16 4 11 2 15 -8 11
-18 -7 -61 28 -46 38 15 9 1 27 -17 20 -13 -4 -14 -3 -3 10 7 9 8 15 2 15 -5
0 -8 9 -5 20 5 19 -4 25 -34 21 -7 -1 -13 2 -13 7 0 5 10 9 22 8 16 -1 23 5
25 19 2 17 2 17 -5 3 -4 -10 -12 -14 -19 -10 -9 6 -3 22 22 61 19 29 35 57 35
62 0 9 -38 84 -63 124 -46 75 -109 158 -166 218 -87 92 -499 449 -597 517 -40
28 -42 28 -80 14 -21 -8 -47 -17 -56 -21 -10 -3 -18 -13 -18 -23 0 -10 -6 -23
-14 -29 -7 -6 -16 -29 -20 -51 -10 -65 -26 -58 -26 14 0 35 3 66 8 69 4 2 1 2
-5 1 -7 -2 -13 1 -13 7 0 6 -4 8 -9 4 -6 -3 -8 4 -6 15 2 13 -1 20 -11 20 -8
0 -14 5 -14 11 0 5 -4 8 -9 5 -5 -3 -14 1 -21 9 -7 8 -9 15 -5 15 4 0 2 6 -4
13 -6 8 -8 16 -5 20 3 3 3 15 -1 27 -5 17 -10 19 -21 9 -17 -14 -19 2 -1 21
10 12 9 12 -5 2 -11 -9 -18 -10 -23 -2 -3 6 -10 8 -15 5 -5 -3 -11 -1 -15 5
-3 5 -1 10 6 10 8 0 7 5 -2 17 -12 15 -12 16 4 10 9 -3 17 -2 17 3 0 6 -9 10
-20 10 -11 0 -20 7 -20 15 0 9 -8 19 -18 23 -10 4 -18 16 -18 27 -1 11 -6 31
-13 45 l-12 25 5 -24 c3 -15 1 -20 -5 -14 -5 5 -10 21 -11 35 -1 15 -5 25 -9
22 -7 -4 -20 24 -25 55 -2 8 -10 21 -19 30 -14 14 -17 14 -26 1 -9 -12 -10
-10 -6 8 3 13 0 22 -6 22 -8 0 -7 3 1 9 11 7 11 9 -2 14 -9 4 -16 14 -16 22 0
10 -5 13 -12 9 -9 -6 -9 -3 1 9 11 14 10 18 -13 28 -14 7 -23 16 -19 22 3 5 9
4 13 -3 5 -8 7 -3 7 13 -2 22 -6 26 -22 21 l-20 -6 20 16 c20 17 20 17 -3 11
-21 -6 -23 -5 -13 13 8 15 7 23 -5 33 -8 7 -13 18 -10 26 3 7 0 13 -7 13 -8 0
-6 4 3 10 13 8 13 10 -1 10 -9 0 -20 7 -23 16 -10 26 -7 29 9 8 14 -18 15 -17
4 8 -7 15 -16 25 -20 22 -5 -3 -9 0 -9 5 0 6 7 11 15 11 11 0 12 5 5 25 -6 16
-6 25 1 25 5 0 4 6 -3 14 -7 8 -17 11 -22 8 -5 -3 -6 0 -2 6 3 6 2 14 -4 17
-8 5 -8 11 0 20 8 10 8 15 0 20 -6 4 -9 14 -5 22 3 9 -2 25 -12 35 -12 13 -13
18 -4 16 7 -2 15 5 16 15 2 9 -1 14 -7 11 -5 -4 -9 4 -8 17 4 40 1 49 -16 49
-15 0 -15 2 0 25 18 28 21 51 6 60 -5 3 -7 0 -4 -8 3 -8 1 -18 -4 -21 -5 -3
-8 10 -6 29 2 25 -1 33 -9 28 -8 -4 -7 -1 1 9 10 13 10 18 0 29 -15 16 -20 69
-6 69 5 0 6 -4 3 -10 -3 -5 -1 -10 4 -10 14 0 14 13 -1 28 -9 9 -8 12 6 12 9
0 14 5 11 10 -4 6 -11 7 -17 4 -6 -4 -8 -2 -4 4 3 6 2 13 -2 16 -5 3 -9 27 -9
53 0 34 2 42 8 28 6 -15 8 -10 7 18 -1 20 -6 37 -11 37 -5 0 -6 -7 -3 -16 6
-14 4 -15 -9 -4 -10 8 -12 16 -6 20 16 9 19 76 3 72 -10 -2 -10 2 -3 17 6 10
7 22 3 26 -4 5 2 5 12 1 19 -7 19 -6 2 13 -17 18 -17 20 1 31 17 11 17 11 -1
6 -17 -6 -18 -5 -3 18 24 35 29 76 11 76 -8 0 -12 5 -9 10 4 6 12 7 18 3 7 -4
5 2 -3 12 -8 10 -10 16 -3 12 9 -6 11 5 7 43 -5 45 -4 49 13 44 16 -5 16 -4
-1 10 -11 9 -15 16 -9 16 6 0 13 7 16 14 4 10 1 13 -7 10 -7 -3 -13 2 -13 10
0 8 5 14 11 13 6 -1 10 4 8 11 -1 6 2 12 6 12 4 0 8 15 8 33 0 17 4 41 9 51 7
15 5 18 -7 14 -8 -4 -15 -1 -15 7 0 8 9 12 26 9 20 -3 23 -2 11 6 -8 5 -10 10
-5 10 6 0 3 5 -5 10 -13 9 -13 10 0 10 9 0 21 14 27 30 9 23 8 28 0 23 -8 -4
-7 -1 1 9 9 11 10 18 2 23 -5 3 -10 12 -10 18 0 7 4 6 10 -3 8 -12 10 -8 11
15 1 17 1 40 1 53 -1 12 3 20 7 18 14 -9 30 39 19 57 -6 11 -5 17 2 17 6 0 8
5 5 10 -3 6 1 13 9 16 9 3 16 10 16 16 0 5 -4 7 -9 3 -5 -3 -13 -1 -16 5 -4 6
-3 10 2 9 27 -5 34 2 18 17 -9 9 -13 19 -10 22 3 4 10 0 14 -7 11 -17 19 -3
16 27 -1 13 4 22 12 22 7 0 13 9 13 19 0 11 6 22 13 24 7 3 5 6 -6 6 -15 1
-16 3 -5 15 7 8 16 12 21 9 6 -4 12 29 8 50 -1 5 8 16 20 26 11 9 22 29 22 44
1 17 8 27 17 27 11 0 12 2 3 8 -15 9 -5 26 21 35 10 4 16 10 13 14 -4 3 -1 13
6 21 9 13 9 14 0 8 -7 -4 -13 -2 -13 3 0 6 5 12 10 12 9 1 17 3 38 8 4 2 -2 6
-13 11 -17 7 -17 9 -2 9 9 1 17 6 17 12 0 5 4 8 8 5 4 -2 8 4 8 15 0 22 -1 22
-29 8 -24 -12 73 85 262 261 169 158 251 270 300 411 34 101 3 309 -66 429
-41 70 -169 196 -268 262 -223 150 -577 285 -886 338 -137 23 -399 34 -489 20z
m383 -257 c-35 -2 -91 -2 -125 0 -35 2 -7 3 62 3 69 0 97 -1 63 -3z m236 -240
c23 -3 41 -9 41 -13 0 -12 -82 1 -107 16 -13 8 -23 22 -23 31 0 14 4 13 24 -6
13 -13 42 -25 65 -28z m-650 -16 c-17 -14 -103 -56 -106 -53 -3 3 19 18 48 35
29 16 55 28 58 26 2 -3 2 -6 0 -8z m1026 -207 c20 0 26 -3 19 -10 -13 -13 -94
-2 -94 12 0 6 10 8 23 4 12 -3 35 -6 52 -6z m-701 -95 c7 -19 -20 -45 -47 -44
-12 0 -16 3 -9 6 7 3 17 16 22 29 11 27 25 31 34 9z m56 -165 c0 -5 -17 -10
-37 -9 -31 0 -34 2 -18 9 28 12 55 12 55 0z m-1566 -413 c9 -15 6 -22 -16 -38
-19 -14 -34 -42 -52 -97 -59 -185 -84 -318 -69 -378 8 -36 18 -46 56 -58 17
-6 16 -9 -10 -40 -33 -41 -68 -47 -77 -13 -10 37 -7 202 5 259 10 49 106 363
116 381 8 13 35 4 47 -16z m-9 -254 c-4 -10 -12 -36 -18 -58 -12 -51 -27 -68
-27 -32 0 34 29 107 42 107 6 0 7 -8 3 -17z m2330 -183 c3 -5 1 -10 -4 -10 -6
0 -11 5 -11 10 0 6 2 10 4 10 3 0 8 -4 11 -10z m-128 -255 c0 -8 -4 -12 -9 -9
-5 3 -6 10 -3 15 9 13 12 11 12 -6z m-94 -290 c-3 -9 -8 -14 -10 -11 -3 3 -2
9 2 15 9 16 15 13 8 -4z m-1828 -14 c-3 -6 -11 -11 -17 -11 -6 0 -6 6 2 15 14
17 26 13 15 -4z m445 -73 c-3 -48 -2 -50 19 -38 17 9 19 7 16 -11 -5 -24 -15
-38 -15 -21 0 7 -7 12 -15 12 -15 0 -16 -32 -2 -46 3 -4 4 -11 1 -15 -7 -13
-34 -11 -34 2 0 5 6 7 13 3 8 -5 8 -2 -2 9 -7 9 -10 17 -5 17 5 0 9 27 9 60 0
33 3 60 8 60 5 0 8 -15 7 -32z m96 4 c-17 -16 -18 -16 -5 5 7 12 15 20 18 17
3 -2 -3 -12 -13 -22z m-113 -165 c-4 -7 -8 -15 -8 -19 0 -17 -11 -15 -12 2 -1
11 3 20 8 20 6 0 7 5 3 12 -4 7 -3 8 5 4 6 -4 8 -13 4 -19z m-710 -404 c-7 -2
-21 -2 -30 0 -10 3 -4 5 12 5 17 0 24 -2 18 -5z m-58 -183 c3 -5 1 -10 -4 -10
-6 0 -11 5 -11 10 0 6 2 10 4 10 3 0 8 -4 11 -10z m20 -98 c-3 -3 -11 0 -18 7
-9 10 -8 11 6 5 10 -3 15 -9 12 -12z m531 -173 c19 -22 19 -22 -3 -10 -13 6
-23 16 -23 21 0 15 5 12 26 -11z m-611 -59 c3 -5 1 -10 -4 -10 -6 0 -11 5 -11
10 0 6 2 10 4 10 3 0 8 -4 11 -10z m2 -42 c-3 -8 -6 -5 -6 6 -1 11 2 17 5 13
3 -3 4 -12 1 -19z m1504 -685 c-8 -15 -10 -15 -11 -2 0 17 10 32 18 25 2 -3
-1 -13 -7 -23z m886 11 c-3 -3 -12 -4 -19 -1 -8 3 -5 6 6 6 11 1 17 -2 13 -5z
m-720 -235 c1 -12 -1 -19 -4 -15 -3 3 -13 0 -21 -7 -11 -9 -11 -4 2 16 22 32
21 32 23 6z m18 -127 c-3 -3 -8 9 -11 26 -4 18 -12 32 -18 32 -6 0 -4 5 4 10
12 7 17 2 23 -27 4 -20 5 -38 2 -41z m-35 -12 c0 -10 7 -23 15 -30 11 -9 12
-16 5 -25 -5 -6 -6 -15 -2 -20 4 -4 -3 -2 -15 4 -13 6 -23 16 -23 21 0 5 -8 6
-17 3 -16 -6 -16 -5 -4 10 15 19 31 14 31 -9 0 -8 4 -13 10 -9 6 4 5 15 -2 30
-6 13 -14 23 -17 20 -4 -2 -7 5 -7 15 0 10 6 16 13 13 7 -3 13 -13 13 -23z
m49 -47 c1 -7 -4 -13 -10 -13 -5 0 -8 4 -4 9 3 5 1 12 -4 16 -6 3 -7 13 -4 22
6 15 7 14 14 -3 4 -10 8 -25 8 -31z m7 -35 c4 -7 3 -8 -4 -4 -7 4 -12 3 -12
-3 0 -5 4 -11 10 -13 15 -5 26 -178 11 -178 -7 0 -9 9 -6 23 7 30 -10 56 -26
40 -6 -6 -19 -9 -28 -6 -14 4 -14 3 -1 -6 12 -9 11 -11 -7 -11 -14 0 -23 -6
-23 -15 0 -8 5 -15 10 -15 6 0 10 -5 10 -11 0 -5 -4 -7 -10 -4 -5 3 -10 -3
-10 -13 0 -18 3 -19 25 -9 14 7 25 15 25 20 0 4 4 7 9 7 4 0 6 -12 3 -26 -3
-18 -1 -25 6 -20 6 3 13 0 15 -6 4 -8 6 -7 6 4 1 9 -5 18 -11 21 -7 2 -10 8
-6 12 4 4 14 5 23 2 12 -5 15 -28 15 -134 l0 -128 -35 -11 c-25 -8 -37 -8 -44
0 -18 22 -30 93 -36 211 -4 66 -11 135 -17 153 -12 38 -5 50 17 32 9 -7 18
-10 21 -7 10 10 -6 27 -27 27 -10 0 -19 5 -19 11 0 6 7 9 15 5 13 -4 13 -2 5
14 -5 10 -10 25 -9 32 0 10 2 10 6 1 2 -7 14 -14 26 -14 17 -1 18 -2 5 -6 -10
-2 -18 -8 -18 -12 0 -12 29 -47 30 -35 0 5 -5 15 -12 22 -9 9 -8 12 4 12 9 0
18 6 21 13 2 6 6 0 9 -15 3 -15 2 -25 -2 -23 -11 7 -20 -22 -14 -42 5 -15 4
-16 -5 -3 -8 11 -11 12 -11 2 0 -7 -5 -10 -12 -6 -7 4 -8 3 -4 -4 4 -7 2 -12
-4 -12 -6 0 -8 -5 -4 -11 5 -8 8 -8 14 0 4 7 17 13 28 14 23 1 29 12 12 22
-16 10 -12 22 10 28 17 4 18 9 10 37 -12 41 -1 66 16 38z m-1944 -78 c-2 -17
-9 -29 -14 -28 -11 4 -11 8 -2 43 9 35 22 23 16 -15z m213 30 c3 -5 1 -10 -4
-10 -6 0 -11 5 -11 10 0 6 2 10 4 10 3 0 8 -4 11 -10z m2897 -23 c-6 -7 -15
-24 -21 -38 l-9 -24 -10 25 c-8 21 -6 27 12 37 28 16 41 16 28 0z m-3733 -70
c-9 -7 -14 -18 -12 -24 7 -19 -1 -16 -27 12 l-23 25 39 0 c33 -1 36 -3 23 -13z
m2559 -24 c-4 -22 -22 -20 -26 1 -2 10 3 16 13 16 10 0 15 -7 13 -17z m-36
-35 c-9 -9 -12 -7 -12 12 0 19 3 21 12 12 9 -9 9 -15 0 -24z m1268 -10 c0 -3
-13 -16 -30 -28 l-30 -21 -10 26 c-5 14 -10 28 -10 29 0 2 18 3 40 2 22 0 40
-4 40 -8z m-2815 -158 c-3 -5 -11 -10 -16 -10 -6 0 -7 5 -4 10 3 6 11 10 16
10 6 0 7 -4 4 -10z m-527 -74 c34 -21 62 -41 62 -46 0 -15 -31 1 -102 53 -65
47 -93 75 -45 45 12 -8 50 -31 85 -52z m2012 44 c0 -5 -5 -10 -11 -10 -5 0 -7
5 -4 10 3 6 8 10 11 10 2 0 4 -4 4 -10z m-1885 -70 c3 -5 -3 -10 -14 -10 -12
0 -21 5 -21 10 0 6 6 10 14 10 8 0 18 -4 21 -10z m-687 -82 c17 -17 15 -58 -2
-58 -13 0 -26 28 -26 58 0 15 12 16 28 0z m653 -8 c10 -6 19 -15 19 -20 0 -11
-32 -29 -72 -41 -25 -7 -28 -6 -18 6 6 8 9 18 6 24 -7 10 20 41 35 41 6 0 19
-5 30 -10z m1447 -10 c-20 -32 -83 -71 -101 -64 -19 7 -23 29 -7 39 6 3 10 -1
10 -9 0 -27 35 -18 70 19 39 40 45 44 28 15z m529 5 c-9 -21 9 -28 27 -9 25
24 36 8 36 -52 0 -36 -4 -53 -10 -49 -6 4 -8 15 -5 26 4 11 2 19 -4 19 -6 0
-11 9 -11 20 0 21 -15 27 -25 10 -4 -6 -11 -8 -16 -5 -13 9 -11 55 2 55 6 0 9
-7 6 -15z m-1714 -78 c-23 -10 -53 -4 -53 11 0 4 17 6 38 4 34 -4 35 -6 15
-15z m3076 -29 c5 -26 12 -34 36 -38 l29 -5 -27 -18 c-34 -22 -34 -35 -2 -47
31 -12 32 -23 3 -42 -24 -16 -17 -38 12 -38 31 0 31 -15 -1 -43 l-30 -26 -10
27 c-24 65 -67 179 -74 197 -14 37 -13 52 6 48 11 -3 19 3 24 17 9 28 25 14
34 -32z m-4164 3 c-4 -9 0 -11 12 -7 17 7 17 6 0 -11 -18 -17 -19 -17 -36 4
-10 12 -22 19 -26 15 -5 -4 -6 -2 -3 3 9 16 59 13 53 -4z m453 -33 c18 -18 15
-42 -9 -72 -25 -32 -42 -25 -28 11 7 18 6 30 -1 37 -16 16 -12 36 8 36 10 0
23 -5 30 -12z m-1458 -38 c0 -5 -4 -10 -10 -10 -5 0 -10 5 -10 10 0 6 5 10 10
10 6 0 10 -4 10 -10z m1000 -115 c0 -5 -5 -3 -10 5 -5 8 -10 20 -10 25 0 6 5
3 10 -5 5 -8 10 -19 10 -25z m875 25 c3 -5 2 -10 -4 -10 -5 0 -13 5 -16 10 -3
6 -2 10 4 10 5 0 13 -4 16 -10z m-1811 -11 c-2 -4 2 -9 8 -12 7 -2 1 -4 -13
-3 -14 0 -26 6 -26 13 0 6 8 11 18 10 10 -1 16 -4 13 -8z m835 -28 c-5 -1 -3
-8 5 -15 11 -8 13 -15 6 -26 -8 -13 -10 -12 -10 3 0 10 -5 15 -10 12 -6 -4 -8
-9 -6 -13 2 -4 -16 -8 -40 -9 -24 -1 -44 3 -44 8 0 5 3 8 8 8 4 -1 14 -1 22 1
11 1 10 4 -5 11 l-20 9 20 -4 c11 -2 28 -7 38 -11 15 -6 17 -3 13 18 -5 27 13
43 26 23 4 -6 3 -13 -3 -15z m-99 -15 c-13 -36 -13 -59 2 -50 7 4 8 3 4 -5
-13 -21 -27 0 -23 34 5 34 16 59 23 52 3 -2 0 -16 -6 -31z m-79 -3 c-12 -20
-14 -14 -5 12 4 9 9 14 11 11 3 -2 0 -13 -6 -23z m-1821 7 c0 -5 -9 -10 -20
-10 -11 0 -20 5 -20 10 0 6 9 10 20 10 11 0 20 -4 20 -10z m-90 -20 c0 -5 -5
-10 -11 -10 -5 0 -7 5 -4 10 3 6 8 10 11 10 2 0 4 -4 4 -10z m2149 7 c-2 -1
-13 -9 -24 -17 -19 -14 -19 -14 -6 3 7 9 18 17 24 17 6 0 8 -1 6 -3z m-18 -58
c-9 -22 -10 -22 -10 -3 -1 11 2 24 6 27 12 12 14 0 4 -24z m-91 14 c-8 -3 -22
-11 -30 -17 -13 -10 -13 -9 -1 7 7 9 21 17 30 16 13 0 14 -1 1 -6z m10 -35 c0
-4 -4 -8 -9 -8 -6 0 -12 4 -15 8 -3 5 1 9 9 9 8 0 15 -4 15 -9z m2950 -14 c0
-8 -5 -12 -10 -9 -6 4 -8 11 -5 16 9 14 15 11 15 -7z m-3110 -4 c0 -5 -7 -7
-15 -4 -8 4 -15 1 -15 -7 0 -7 -3 -10 -6 -6 -9 9 5 27 22 27 8 0 14 -4 14 -10z
m5125 -8 c-3 -3 -11 0 -18 7 -9 10 -8 11 6 5 10 -3 15 -9 12 -12z m-5127 -37
c-3 -3 -9 2 -12 12 -6 14 -5 15 5 6 7 -7 10 -15 7 -18z m3099 3 c-3 -8 -6 -5
-6 6 -1 11 2 17 5 13 3 -3 4 -12 1 -19z m1490 -4 c-5 -5 -57 13 -57 20 0 3 14
0 31 -6 16 -6 28 -12 26 -14z m-4542 -14 c3 -6 -1 -7 -9 -4 -18 7 -21 14 -7
14 6 0 13 -4 16 -10z m-135 -4 c0 -3 -4 -8 -10 -11 -5 -3 -10 -1 -10 4 0 6 5
11 10 11 6 0 10 -2 10 -4z m2561 -63 c24 -20 43 -96 36 -144 -6 -47 -27 -74
-80 -101 -30 -15 -37 -23 -32 -39 9 -28 10 -120 1 -147 -4 -12 -20 -29 -36
-37 -37 -19 -90 -20 -90 -1 0 9 11 13 32 12 27 -1 36 5 61 42 33 49 32 68 -8
126 -29 43 -31 52 -9 60 8 3 12 2 9 -4 -11 -18 59 -11 91 9 41 25 58 69 50
125 -7 43 -26 70 -77 109 l-24 17 30 -6 c17 -4 37 -13 46 -21z m-1698 -20 c-7
-2 -19 -2 -25 0 -7 3 -2 5 12 5 14 0 19 -2 13 -5z m1670 -54 c-5 -4 -18 -10
-31 -14 -28 -8 -39 14 -22 45 l12 22 24 -23 c13 -12 21 -26 17 -30z m574 -41
c-3 -8 -6 -5 -6 6 -1 11 2 17 5 13 3 -3 4 -12 1 -19z m-4649 -25 c-13 -48 -23
-58 -15 -15 5 22 3 32 -6 32 -8 0 -7 4 3 10 25 16 29 11 18 -27z m6700 -15
c23 -20 6 -18 -34 3 -35 19 -36 20 -9 14 16 -4 36 -11 43 -17z m611 -150 l-2
-43 -6 35 c-7 33 -5 50 5 50 2 0 3 -19 3 -42z m-574 12 c65 -24 47 -24 -35 0
-36 10 -54 19 -40 19 14 -1 48 -9 75 -19z m-134 -3 c-1 -12 -15 -9 -19 4 -3 6
1 10 8 8 6 -3 11 -8 11 -12z m608 -27 c1 -4 -82 -4 -99 0 -3 1 15 9 40 19 45
17 55 14 59 -19z m48 18 c-3 -8 -6 -5 -6 6 -1 11 2 17 5 13 3 -3 4 -12 1 -19z
m-7300 -3 c0 -8 -4 -12 -9 -9 -4 3 -8 9 -8 15 0 5 4 9 8 9 5 0 9 -7 9 -15z
m7023 10 c0 -12 -85 -44 -93 -36 -21 21 2 41 48 41 25 0 45 -2 45 -5z m-7066
-30 c-4 -8 -11 -12 -16 -9 -6 4 -5 10 3 15 19 12 19 11 13 -6z m7353 -62 c-3
-10 -5 -4 -5 12 0 17 2 24 5 18 2 -7 2 -21 0 -30z m40 15 c-3 -8 -6 -5 -6 6
-1 11 2 17 5 13 3 -3 4 -12 1 -19z m-7451 -13 c-1 -8 -5 -17 -8 -21 -5 -4 -4
16 1 34 3 9 9 -1 7 -13z m944 -39 c0 -3 -4 -8 -10 -11 -5 -3 -10 -1 -10 4 0 6
5 11 10 11 6 0 10 -2 10 -4z m6284 -32 c25 -9 19 -24 -9 -24 -24 0 -32 10 -18
23 8 8 8 8 27 1z m-3239 -84 c8 -16 15 -33 15 -37 -1 -13 -40 41 -40 55 0 20
9 14 25 -18z m-4089 -19 c-10 -11 -24 -17 -32 -14 -17 6 -19 16 -2 11 7 -3 19
1 26 9 21 20 27 15 8 -6z m4053 -61 c1 -10 -5 -8 -21 7 -19 19 -20 24 -7 39
13 15 14 15 20 -7 4 -13 7 -31 8 -39z m3471 -30 c-5 -10 -10 -28 -10 -39 0
-12 -4 -21 -10 -21 -5 0 -10 9 -10 19 0 31 19 73 30 66 7 -4 7 -12 0 -25z
m-7544 -6 c1 -9 0 -13 -4 -10 -3 4 -7 14 -8 22 -1 9 0 13 4 10 3 -4 7 -14 8
-22z m4063 -26 c-13 -18 -29 -37 -37 -42 -11 -6 -8 -14 14 -37 15 -16 23 -29
18 -29 -17 0 -94 85 -94 103 0 16 2 16 25 1 23 -15 27 -15 51 0 14 10 28 24
31 32 3 8 8 13 10 10 3 -3 -5 -20 -18 -38z m3200 -25 c-13 -21 -30 -43 -39
-50 -8 -6 -12 -14 -8 -18 3 -4 -2 -15 -13 -26 -10 -10 -19 -26 -19 -35 0 -8
-4 -13 -10 -9 -9 6 32 84 76 143 34 44 41 41 13 -5z m-7313 7 c0 -11 -4 -20
-8 -20 -10 0 -11 24 -1 33 9 9 9 10 9 -13z m7235 -201 l-10 -24 0 26 c-1 14 2
29 6 33 12 12 14 -9 4 -35z m321 6 c-2 -19 -9 -38 -15 -42 -6 -4 -8 2 -4 18 4
13 7 32 7 42 0 9 4 17 8 17 4 0 6 -16 4 -35z m-7622 21 c0 -2 -8 -10 -17 -17
-16 -13 -17 -12 -4 4 13 16 21 21 21 13z m-56 -57 c-9 -11 -20 -16 -23 -13 -3
4 0 9 7 11 6 3 12 11 12 19 0 9 5 12 11 9 7 -5 4 -14 -7 -26z m2716 -30 c0 -4
-33 -9 -72 -9 -109 -2 -121 -1 -133 11 -7 7 23 10 98 8 59 -1 107 -5 107 -10z
m-493 -175 c-3 -3 -12 -4 -19 -1 -8 3 -5 6 6 6 11 1 17 -2 13 -5z m-57 -19
c-33 -19 -50 -18 -26 0 11 8 27 15 35 15 10 -1 7 -6 -9 -15z m-656 -21 c6 -15
4 -15 -11 -3 -10 7 -20 15 -22 16 -2 2 3 3 11 3 9 0 19 -7 22 -16z m5749 -79
c-2 -8 -12 -16 -20 -19 -13 -5 -15 0 -9 31 3 21 6 47 6 58 1 12 7 4 15 -19 7
-21 11 -44 8 -51z m317 45 c0 -11 -4 -20 -9 -20 -5 0 -7 9 -4 20 3 11 7 20 9
20 2 0 4 -9 4 -20z m-5012 -127 c35 -52 35 -58 -1 -24 -37 35 -46 51 -28 51 5
0 18 -12 29 -27z m427 -56 c75 -59 133 -134 75 -97 -8 5 -16 14 -16 20 -1 5
-2 16 -3 23 -1 8 -4 7 -11 -3 -8 -13 -10 -13 -10 2 0 14 -54 63 -116 106 -16
10 -15 11 6 1 13 -7 47 -30 75 -52z m4258 49 c9 -10 17 -49 22 -108 3 -51 10
-112 15 -135 9 -49 -1 -48 -35 7 -20 31 -25 56 -30 144 -7 107 -2 122 28 92z
m-4495 -78 c2 -4 10 -8 17 -8 17 0 45 -60 45 -97 0 -18 9 -38 24 -53 33 -30
42 -74 22 -105 -32 -48 -104 -17 -98 41 2 25 -1 33 -19 37 -19 5 -20 8 -9 21
7 9 9 16 5 16 -4 0 -3 6 2 13 5 6 10 22 11 33 0 18 -4 22 -29 20 -35 -3 -37 9
-6 42 l22 24 -24 20 -25 19 30 -7 c16 -4 31 -11 32 -16z m-448 8 c0 -3 -4 -8
-10 -11 -5 -3 -10 -1 -10 4 0 6 5 11 10 11 6 0 10 -2 10 -4z m714 -124 c15
-23 17 -24 13 -5 -4 16 -1 20 11 16 11 -5 14 -2 9 10 -4 11 -1 17 8 17 8 0 15
-4 15 -10 0 -5 6 -7 13 -5 7 3 24 -15 40 -40 27 -46 34 -75 19 -75 -15 0 -52
-37 -45 -44 3 -3 -1 -6 -9 -6 -10 0 -25 21 -39 55 -12 30 -26 55 -31 55 -4 0
-8 5 -8 12 0 6 -10 22 -22 35 -14 15 -17 22 -7 18 8 -3 23 -18 33 -33z m-457
-28 c-3 -3 -12 -4 -19 -1 -8 3 -5 6 6 6 11 1 17 -2 13 -5z m13 -24 c0 -5 -5
-10 -11 -10 -5 0 -7 5 -4 10 3 6 8 10 11 10 2 0 4 -4 4 -10z m150 -145 c-7 -8
-17 -15 -22 -15 -6 0 -5 7 2 15 7 8 17 15 22 15 6 0 5 -7 -2 -15z m317 -162
c-3 -10 -5 -2 -5 17 0 19 2 27 5 18 2 -10 2 -26 0 -35z m3550 -104 c120 -17
251 -68 378 -147 28 -17 68 -41 90 -53 22 -12 74 -44 115 -72 41 -28 116 -78
165 -111 50 -34 106 -73 125 -87 148 -111 271 -199 279 -199 5 0 11 -7 15 -15
5 -13 3 -13 -18 0 -12 8 -26 12 -29 9 -4 -4 -9 1 -13 10 -3 9 -12 16 -20 16
-13 0 -37 16 -70 48 -8 7 -14 11 -14 8 0 -4 -28 14 -62 39 -35 24 -101 70
-148 102 -47 32 -122 84 -167 116 -46 32 -105 70 -132 85 -28 15 -97 53 -155
85 -58 32 -133 67 -168 78 -81 26 -82 27 -89 25 -4 0 -16 7 -27 17 -10 10 -48
22 -83 28 -35 6 -68 14 -73 20 -13 12 5 12 101 -2z m-647 -124 c0 -8 -4 -15
-10 -15 -5 0 -7 7 -4 15 4 8 8 15 10 15 2 0 4 -7 4 -15z m-2873 -97 c-3 -8 -6
-5 -6 6 -1 11 2 17 5 13 3 -3 4 -12 1 -19z m4733 -498 c6 -11 9 -20 7 -20 -2
0 -12 9 -22 20 -10 11 -13 20 -7 20 6 0 16 -9 22 -20z m-4690 -174 c0 -3 -4
-8 -10 -11 -5 -3 -10 -1 -10 4 0 6 5 11 10 11 6 0 10 -2 10 -4z m5313 -149
c18 -16 -2 -6 -43 21 -41 27 -84 60 -95 72 -22 26 88 -49 138 -93z m-4633
-7257 c0 -5 -4 -10 -10 -10 -5 0 -10 5 -10 10 0 6 5 10 10 10 6 0 10 -4 10
-10z"/>
<path d="M17907 18983 c-10 -10 -8 -33 2 -33 6 0 9 9 8 20 -1 23 -1 22 -10 13z"/>
<path d="M17864 18825 c-4 -8 -10 -13 -14 -10 -4 3 -11 -2 -14 -11 -5 -12 -2
-15 10 -10 15 6 15 -4 -3 -50 -2 -6 3 -14 13 -18 14 -5 15 -4 4 9 -10 12 -8
16 14 25 17 6 26 17 26 30 0 12 -4 18 -10 15 -5 -3 -10 -13 -10 -21 0 -8 -4
-14 -8 -14 -4 0 -8 9 -8 20 0 11 3 20 6 20 4 0 7 7 7 15 0 19 -6 19 -13 0z"/>
<path d="M17916 18783 c-6 -14 -5 -15 5 -6 7 7 10 15 7 18 -3 3 -9 -2 -12 -12z"/>
<path d="M17889 18742 c-11 -14 -11 -15 0 -5 7 6 20 9 27 6 8 -3 14 -3 14 0 0
14 -30 14 -41 -1z"/>
<path d="M17900 18723 c0 -7 4 -15 10 -18 6 -4 3 -17 -7 -33 l-17 -27 23 23
c20 21 21 24 6 44 -8 12 -15 17 -15 11z"/>
<path d="M17870 18711 c-8 -6 -17 -8 -20 -6 -3 2 -7 -6 -7 -17 -2 -19 -1 -19
11 -3 8 11 20 16 29 12 11 -4 14 -2 10 9 -6 16 -4 16 -23 5z"/>
<path d="M17870 18669 c0 -5 5 -7 10 -4 6 3 10 8 10 11 0 2 -4 4 -10 4 -5 0
-10 -5 -10 -11z"/>
<path d="M17861 18613 c-1 -17 16 -25 25 -12 4 7 3 9 -4 5 -5 -3 -13 0 -15 6
-4 9 -6 10 -6 1z"/>
<path d="M15747 16400 c-10 -13 -10 -13 5 -1 15 11 19 11 24 -3 3 -9 10 -16
16 -16 5 0 6 5 2 12 -4 7 -3 8 5 4 9 -6 9 -11 1 -21 -8 -9 -5 -14 10 -18 17
-4 19 -3 9 9 -6 8 -8 14 -5 14 4 0 2 9 -4 19 -12 23 -46 23 -63 1z"/>
<path d="M18729 22093 c-12 -16 -12 -17 2 -6 9 7 20 9 24 5 5 -4 5 -1 1 6 -9
16 -11 15 -27 -5z"/>
<path d="M16238 20723 c7 -3 16 -2 19 1 4 3 -2 6 -13 5 -11 0 -14 -3 -6 -6z"/>
<path d="M16239 20638 c-7 -25 -5 -36 7 -31 16 6 19 33 4 33 -5 0 -10 -1 -11
-2z"/>
<path d="M18340 20525 c0 -8 5 -15 10 -15 6 0 10 7 10 15 0 8 -4 15 -10 15 -5
0 -10 -7 -10 -15z"/>
<path d="M16230 20510 c0 -5 5 -10 11 -10 5 0 7 5 4 10 -3 6 -8 10 -11 10 -2
0 -4 -4 -4 -10z"/>
<path d="M15499 19443 c-13 -16 -12 -17 4 -4 16 13 21 21 13 21 -2 0 -10 -8
-17 -17z"/>
<path d="M18815 19201 c-3 -5 -1 -12 5 -16 5 -3 10 1 10 9 0 18 -6 21 -15 7z"/>
<path d="M18825 19160 c4 -6 11 -8 16 -5 14 9 11 15 -7 15 -8 0 -12 -5 -9 -10z"/>
<path d="M14055 18419 c-9 -14 -2 -20 14 -10 8 6 9 11 3 15 -6 3 -14 1 -17 -5z"/>
<path d="M14045 18381 c-3 -5 -1 -12 4 -15 5 -3 11 1 15 9 6 16 -9 21 -19 6z"/>
<path d="M15002 18371 c-11 -7 -11 -9 2 -14 10 -4 16 -1 16 8 0 17 -1 17 -18
6z"/>
<path d="M14916 18342 c-3 -4 4 -9 15 -9 23 -2 25 3 4 10 -8 4 -16 3 -19 -1z"/>
<path d="M14993 18335 c0 -8 4 -12 9 -9 5 3 6 10 3 15 -9 13 -12 11 -12 -6z"/>
<path d="M14790 18300 c0 -5 5 -10 11 -10 5 0 7 5 4 10 -3 6 -8 10 -11 10 -2
0 -4 -4 -4 -10z"/>
<path d="M14740 18261 c0 -7 -5 -9 -12 -5 -7 5 -8 3 -3 -5 5 -9 10 -10 18 -2
6 6 8 14 4 18 -4 3 -7 1 -7 -6z"/>
<path d="M14756 18223 c-6 -14 -5 -15 5 -6 7 7 10 15 7 18 -3 3 -9 -2 -12 -12z"/>
<path d="M14373 18144 c4 -4 0 -16 -10 -26 -15 -17 -15 -18 7 -18 13 0 20 3
17 7 -4 3 -2 12 3 18 8 9 6 15 -7 19 -10 4 -14 4 -10 0z"/>
<path d="M14535 18140 c-4 -6 -1 -9 6 -8 19 5 22 -20 2 -25 -15 -4 -15 -5 3
-6 11 0 26 -7 34 -13 12 -11 12 -10 1 4 -7 9 -10 21 -8 26 3 4 -3 13 -13 20
-13 7 -21 8 -25 2z"/>
<path d="M14498 18133 c7 -3 16 -2 19 1 4 3 -2 6 -13 5 -11 0 -14 -3 -6 -6z"/>
<path d="M19917 18091 c4 -9 9 -20 12 -26 3 -5 6 -13 7 -17 1 -5 2 -11 3 -15
1 -5 6 0 12 10 12 20 3 40 -14 31 -7 -3 -3 2 7 10 21 17 21 17 -11 21 -16 2
-20 -2 -16 -14z"/>
<path d="M14470 18079 c0 -5 5 -7 10 -4 6 3 10 8 10 11 0 2 -4 4 -10 4 -5 0
-10 -5 -10 -11z"/>
<path d="M14575 18040 c3 -5 10 -10 16 -10 5 0 9 5 9 10 0 6 -7 10 -16 10 -8
0 -12 -4 -9 -10z"/>
<path d="M19954 18022 c-9 -13 -8 -20 2 -30 7 -7 15 -8 19 -3 3 5 1 13 -5 16
-8 5 -7 11 1 21 6 8 7 14 3 14 -5 0 -14 -8 -20 -18z"/>
<path d="M20240 18020 c-13 -9 -13 -11 0 -20 8 -5 20 -10 27 -10 11 0 43 26
43 36 0 8 -55 4 -70 -6z"/>
<path d="M13067 17955 c3 -8 9 -12 14 -9 12 7 11 11 -5 17 -10 4 -13 1 -9 -8z"/>
<path d="M13076 17916 c5 -13 44 -30 44 -19 0 7 -33 32 -42 33 -4 0 -5 -6 -2
-14z"/>
<path d="M13033 17861 c-11 -18 -6 -35 12 -38 11 -2 15 41 5 51 -3 3 -11 -3
-17 -13z"/>
<path d="M12995 17761 c-3 -6 3 -14 13 -20 14 -7 21 -5 30 10 7 10 8 19 3 19
-5 0 -12 -6 -14 -12 -4 -10 -6 -10 -6 0 -1 14 -17 16 -26 3z"/>
<path d="M12865 17453 c0 -16 5 -27 10 -25 9 2 10 10 6 42 -3 23 -17 8 -16
-17z"/>
<path d="M12685 17119 c-4 -6 -5 -12 -2 -15 2 -3 7 2 10 11 7 17 1 20 -8 4z"/>
<path d="M12629 16983 c-13 -16 -12 -17 4 -4 9 7 17 15 17 17 0 8 -8 3 -21
-13z"/>
<path d="M14698 16643 c7 -3 16 -2 19 1 4 3 -2 6 -13 5 -11 0 -14 -3 -6 -6z"/>
<path d="M15365 16229 c-4 -6 -5 -12 -2 -15 2 -3 7 2 10 11 7 17 1 20 -8 4z"/>
<path d="M18461 15747 c-6 -8 -8 -17 -4 -20 3 -4 1 -7 -5 -7 -7 0 -12 -5 -12
-11 0 -18 27 8 33 31 6 23 3 25 -12 7z"/>
<path d="M16526 7783 c-6 -14 -5 -15 5 -6 7 7 10 15 7 18 -3 3 -9 -2 -12 -12z"/>
<path d="M16437 7521 c-4 -17 -3 -21 5 -13 5 5 8 16 6 23 -3 8 -7 3 -11 -10z"/>
<path d="M16400 7399 c0 -5 5 -7 10 -4 6 3 10 8 10 11 0 2 -4 4 -10 4 -5 0
-10 -5 -10 -11z"/>
<path d="M16395 7370 c3 -5 8 -10 11 -10 2 0 4 5 4 10 0 6 -5 10 -11 10 -5 0
-7 -4 -4 -10z"/>
<path d="M16366 7313 c-6 -14 -5 -15 5 -6 7 7 10 15 7 18 -3 3 -9 -2 -12 -12z"/>
</g>
</svg>
